<svg width="549" height="97" viewBox="0 0 549 97" fill="none" xmlns="http://www.w3.org/2000/svg">
<g clip-path="url(#clip0_0_596)">
<path d="M111.861 70.1665H62.5823L51.8398 97H45.3789L84.0484 0.192078H90.3755L129.198 97H122.45L111.861 70.1665ZM109.51 64.3657L87.2024 8.35544L64.8953 64.3657H109.49H109.51Z" fill="black"/>
<path d="M160.852 0.192078V91.1992H211.641V97H154.793V0.192078H160.852Z" fill="black"/>
<path d="M297.371 97L246.85 47.6164V97H240.791V0.192078H246.85V45.1386L293.109 0.192078H301.366L253.464 46.3871L305.896 97H297.371Z" fill="black"/>
<path d="M334.53 0.192078V97H328.471V0.192078H334.53Z" fill="black"/>
<path d="M370.314 0.192078H377.195L417.394 88.0107L457.708 0.192078H463.901V97H457.708V13.1766L419.439 97H414.622L376.354 13.1766V97H370.295V0.192078H370.314Z" fill="black"/>
<path d="M505.743 0.192078V97H499.684V0.192078H505.743Z" fill="black"/>
<path d="M62.5823 64.3657H0V70.1665H62.5823V64.3657Z" fill="black"/>
<path d="M535.237 6.91485C535.237 3.11168 538.334 0 542.1 0C545.865 0 549 3.11168 549 6.91485C549 10.718 545.903 13.8297 542.1 13.8297C538.296 13.8297 535.237 10.718 535.237 6.91485ZM548.063 6.91485C548.063 3.61109 545.387 0.902772 542.119 0.902772C538.85 0.902772 536.193 3.61109 536.193 6.91485C536.193 10.2186 538.85 12.9269 542.119 12.9269C545.387 12.9269 548.063 10.2186 548.063 6.91485ZM538.372 6.87644C538.372 4.64832 540.016 2.95802 542.195 2.95802C543.954 2.95802 545.502 4.1105 545.751 5.66634H544.279C544.03 4.82119 543.189 4.24495 542.195 4.24495C540.8 4.24495 539.729 5.39743 539.729 6.87644C539.729 8.35545 540.8 9.52713 542.195 9.52713C543.189 9.52713 544.068 8.91247 544.279 7.99049H545.77C545.464 9.66158 543.992 10.8141 542.195 10.8141C540.016 10.8141 538.372 9.10455 538.372 6.87644Z" fill="black"/>
</g>
<defs>
<clipPath id="clip0_0_596">
<rect width="549" height="97" fill="white"/>
</clipPath>
</defs>
</svg>
